<svg width="54" height="54" viewBox="0 0 54 54" fill="none" xmlns="http://www.w3.org/2000/svg">
<path d="M19.0007 42.4722H17.883C8.94146 42.4722 4.4707 40.2368 4.4707 29.0599V17.883C4.4707 8.94146 8.94146 4.4707 17.883 4.4707H35.766C44.7075 4.4707 49.1783 8.94146 49.1783 17.883V29.0599C49.1783 38.0014 44.7075 42.4722 35.766 42.4722H34.6483C33.9554 42.4722 33.2847 42.8075 32.86 43.3663L29.507 47.8371C28.0316 49.8042 25.6174 49.8042 24.142 47.8371L20.789 43.3663C20.4313 42.8745 19.6042 42.4722 19.0007 42.4722Z" stroke="#F6F6FE" stroke-width="1.2193" stroke-miterlimit="10" stroke-linecap="round" stroke-linejoin="round"/>
<path d="M35.7578 24.5891H35.7778" stroke="#F6F6FE" stroke-width="1.62573" stroke-linecap="round" stroke-linejoin="round"/>
<path d="M26.8144 24.5891H26.8345" stroke="#F6F6FE" stroke-width="1.62573" stroke-linecap="round" stroke-linejoin="round"/>
<path d="M17.871 24.5891H17.8911" stroke="#F6F6FE" stroke-width="1.62573" stroke-linecap="round" stroke-linejoin="round"/>
</svg>
