<svg width="66" height="68" viewBox="0 0 66 68" fill="none" xmlns="http://www.w3.org/2000/svg">
<circle cx="32" cy="34" r="30" fill="#1FBF8F"/>
<path d="M24.7783 43.3477L30.0742 47.4477C30.7575 48.1311 32.295 48.4727 33.32 48.4727H39.8117C41.8617 48.4727 44.0825 46.9352 44.595 44.8852L48.695 32.4144C49.5492 30.0227 48.0117 27.9727 45.4492 27.9727H38.6158C37.5908 27.9727 36.7367 27.1186 36.9075 25.9227L37.7617 20.4561C38.1033 18.9186 37.0783 17.2102 35.5408 16.6977C34.1742 16.1852 32.4658 16.8686 31.7825 17.8936L24.7783 28.3144" stroke="#292D32" stroke-width="2.8125" stroke-miterlimit="10"/>
<path d="M16.0659 43.3479V26.6062C16.0659 24.2145 17.0909 23.3604 19.4826 23.3604H21.1909C23.5826 23.3604 24.6076 24.2145 24.6076 26.6062V43.3479C24.6076 45.7395 23.5826 46.5937 21.1909 46.5937H19.4826C17.0909 46.5937 16.0659 45.7395 16.0659 43.3479Z" stroke="#292D32" stroke-width="2.8125" stroke-linecap="round" stroke-linejoin="round"/>
</svg>
