<svg width="66" height="68" viewBox="0 0 66 68" fill="none" xmlns="http://www.w3.org/2000/svg">
<circle cx="32" cy="34" r="30" fill="#A49DFB"/>
<path d="M27.8852 31.6637C27.7227 31.6475 27.5277 31.6475 27.3489 31.6637C23.4814 31.5337 20.4102 28.365 20.4102 24.465C20.4102 20.4838 23.6277 17.25 27.6252 17.25C31.6064 17.25 34.8402 20.4838 34.8402 24.465C34.8239 28.365 31.7527 31.5337 27.8852 31.6637Z" stroke="#292D32" stroke-width="3.125" stroke-linecap="round" stroke-linejoin="round"/>
<path d="M39.6663 20.5C42.8188 20.5 45.3538 23.0513 45.3538 26.1875C45.3538 29.2587 42.9163 31.7612 39.8776 31.875C39.7476 31.8588 39.6013 31.8588 39.4551 31.875" stroke="#292D32" stroke-width="3.125" stroke-linecap="round" stroke-linejoin="round"/>
<path d="M19.7599 37.66C15.8274 40.2925 15.8274 44.5825 19.7599 47.1987C24.2287 50.1887 31.5574 50.1887 36.0262 47.1987C39.9587 44.5662 39.9587 40.2763 36.0262 37.66C31.5737 34.6863 24.2449 34.6863 19.7599 37.66Z" stroke="#292D32" stroke-width="3.125" stroke-linecap="round" stroke-linejoin="round"/>
<path d="M42.8027 46.5C43.9727 46.2562 45.0777 45.785 45.9877 45.0862C48.5227 43.185 48.5227 40.0487 45.9877 38.1475C45.094 37.465 44.0052 37.01 42.8515 36.75" stroke="#292D32" stroke-width="3.125" stroke-linecap="round" stroke-linejoin="round"/>
</svg>
