<svg width="66" height="68" viewBox="0 0 66 68" fill="none" xmlns="http://www.w3.org/2000/svg">
<circle cx="33" cy="34" r="30" fill="#FF7A59"/>
<path d="M23.625 26.375H39.0417C40.8958 26.375 42.375 27.8749 42.375 29.7083V33.3958" stroke="#292D32" stroke-width="3.125" stroke-miterlimit="10" stroke-linecap="round" stroke-linejoin="round"/>
<path d="M27.1458 22.875L23.625 26.3751L27.1458 29.896" stroke="#292D32" stroke-width="3.125" stroke-miterlimit="10" stroke-linecap="round" stroke-linejoin="round"/>
<path d="M42.375 41.6253H26.9583C25.1042 41.6253 23.625 40.1254 23.625 38.292V34.6045" stroke="#292D32" stroke-width="3.125" stroke-miterlimit="10" stroke-linecap="round" stroke-linejoin="round"/>
<path d="M38.854 45.1254L42.3748 41.6253L38.854 38.1045" stroke="#292D32" stroke-width="3.125" stroke-miterlimit="10" stroke-linecap="round" stroke-linejoin="round"/>
<path d="M32.9998 54.8337C44.5058 54.8337 53.8332 45.5063 53.8332 34.0003C53.8332 22.4944 44.5058 13.167 32.9998 13.167C21.4939 13.167 12.1665 22.4944 12.1665 34.0003C12.1665 45.5063 21.4939 54.8337 32.9998 54.8337Z" stroke="#292D32" stroke-width="3.125" stroke-miterlimit="10" stroke-linecap="round" stroke-linejoin="round"/>
</svg>
