<svg width="95" height="95" viewBox="0 0 95 95" fill="none" xmlns="http://www.w3.org/2000/svg">
<g clip-path="url(#clip0_1431_3019)">
<path d="M27.4375 31.1826H60.4291C64.3971 31.1826 67.5625 34.3925 67.5625 38.3158V46.2072" stroke="#292D32" stroke-width="5.1875" stroke-miterlimit="10" stroke-linecap="round" stroke-linejoin="round"/>
<path d="M34.9721 23.6924L27.4375 31.1826L34.9721 38.7172" stroke="#292D32" stroke-width="5.1875" stroke-miterlimit="10" stroke-linecap="round" stroke-linejoin="round"/>
<path d="M67.5625 63.8174H34.5709C30.6029 63.8174 27.4375 60.6075 27.4375 56.6842V48.7928" stroke="#292D32" stroke-width="5.1875" stroke-miterlimit="10" stroke-linecap="round" stroke-linejoin="round"/>
<path d="M60.0273 71.3076L67.5619 63.8174L60.0273 56.2828" stroke="#292D32" stroke-width="5.1875" stroke-miterlimit="10" stroke-linecap="round" stroke-linejoin="round"/>
<path d="M47.5013 92.0833C72.124 92.0833 92.0846 72.1227 92.0846 47.5C92.0846 22.8773 72.124 2.91666 47.5013 2.91666C22.8786 2.91666 2.91797 22.8773 2.91797 47.5C2.91797 72.1227 22.8786 92.0833 47.5013 92.0833Z" stroke="#292D32" stroke-width="5.1875" stroke-miterlimit="10" stroke-linecap="round" stroke-linejoin="round"/>
</g>
<defs>
<clipPath id="clip0_1431_3019">
<rect width="95" height="95" fill="white"/>
</clipPath>
</defs>
</svg>
